#!OML:ASF E:\Style4\Style4.ASF
:FULLY-SPECIFIED
:DEGREES
814
root -0.104031 17.7703 -2.70694 -0.620761 1.01716 1.8993
lowerback 7.64766 2.25677 0.156275
upperback 4.2265 3.01342 0.657694
thorax 0.0526168 1.5035 0.364446
lowerneck 4.59406 -5.70714 -5.89709
upperneck 0.658529 -7.86916 4.1588
head -0.155749 -3.97953 2.41027
rclavicle -5.82439e-014 3.97569e-015
rhumerus 46.9768 -24.9074 -57.6627
rradius 58.0653
rwrist -44.5693
rhand -21.6852 22.9271
rfingers 7.12502
rthumb 4.71274 -7.0005
lclavicle -5.82439e-014 3.97569e-015
lhumerus 35.0772 13.1082 47.7484
lradius 73.4507
lwrist 42.2913
lhand -12.6651 32.7435
lfingers 7.12502
lthumb 13.416 62.2914
rfemur -15.3977 0.0920882 16.1144
rtibia 33.0778
rfoot -16.1163 -12.7043
rtoes -9.38774
lfemur -12.6074 0.26281 -21.5816
ltibia 30.6634
lfoot -17.7498 8.93071
ltoes -12.7404
815
root -0.0995008 17.7644 -2.70647 -0.611463 0.91958 1.93346
lowerback 7.62677 2.26523 0.0967486
upperback 4.28201 3.02036 0.660257
thorax 0.118224 1.50596 0.402168
lowerneck 4.54611 -5.68346 -5.86856
upperneck 0.735075 -7.835 4.03829
head -0.131336 -3.96132 2.36208
rclavicle 2.89232e-014 7.95139e-015
rhumerus 45.6201 -24.9413 -57.3481
rradius 58.5358
rwrist -45.1604
rhand -20.951 22.2613
rfingers 7.12502
rthumb 5.4217 -7.64938
lclavicle 2.89232e-014 7.95139e-015
lhumerus 33.8343 12.8411 47.5841
lradius 73.8177
lwrist 42.4691
lhand -12.6518 32.9208
lfingers 7.12502
lthumb 13.4288 62.468
rfemur -15.5155 0.0695479 16.067
rtibia 33.2304
rfoot -16.1446 -12.659
rtoes -9.74107
lfemur -12.6704 0.344722 -21.6326
ltibia 30.7866
lfoot -17.8161 8.94672
ltoes -12.7324
816
root -0.0958098 17.7591 -2.70637 -0.640772 0.858505 1.96608
lowerback 7.63913 2.28864 0.0548636
upperback 4.29101 3.04857 0.642317
thorax 0.119337 1.51954 0.404744
lowerneck 4.67929 -5.65348 -5.79878
upperneck 0.843916 -7.79987 3.96157
head -0.127526 -3.94464 2.32732
rclavicle 4.37326e-015 -2.38542e-015
rhumerus 44.0185 -24.918 -56.8523
rradius 59.0454
rwrist -45.7749
rhand -20.8545 21.7817
rfingers 7.12502
rthumb 5.51479 -8.12659
lclavicle 4.37326e-015 -2.38542e-015
lhumerus 32.5729 12.3927 47.4111
lradius 74.1754
lwrist 42.584
lhand -12.601 32.9406
lfingers 7.12502
lthumb 13.4778 62.4845
rfemur -15.5782 0.0675252 16.0216
rtibia 33.3722
rfoot -16.1638 -12.653
rtoes -9.90545
lfemur -12.7001 0.394322 -21.6837
ltibia 30.8983
lfoot -17.8334 9.00278
ltoes -12.8727
817
root -0.0938557 17.7546 -2.70662 -0.653323 0.803617 2.02888
lowerback 7.63468 2.28834 -0.0670596
upperback 4.32067 3.04016 0.637791
thorax 0.146445 1.51333 0.469713
lowerneck 4.72308 -5.58171 -5.85629
upperneck 0.9672 -7.71096 3.98467
head -0.0976567 -3.9017 2.34375
rclavicle -2.45499e-014 1.11319e-014
rhumerus 42.4111 -24.7519 -56.2916
rradius 59.6489
rwrist -46.4034
rhand -20.9194 21.5927
rfingers 7.12502
rthumb 5.4522 -8.31713
lclavicle -2.45499e-014 1.11319e-014
lhumerus 31.2552 11.9782 47.2163
lradius 74.5956
lwrist 42.6895
lhand -12.58 33.1814
lfingers 7.12502
lthumb 13.498 62.724
rfemur -15.6511 0.0730429 15.9417
rtibia 33.5003
rfoot -16.22 -12.6029
rtoes -9.99666
lfemur -12.7289 0.426617 -21.7571
ltibia 30.9885
lfoot -17.8741 8.9977
ltoes -12.6897
818
root -0.0901098 17.7504 -2.70558 -0.647833 0.780368 2.06031
lowerback 7.63969 2.26226 -0.125644
upperback 4.36583 3.0015 0.628978
thorax 0.188174 1.49301 0.497225
lowerneck 4.65462 -5.53578 -5.92644
upperneck 1.0978 -7.65144 3.98566
head -0.0451837 -3.87248 2.35085
rclavicle -1.74931e-014 -3.97569e-015
rhumerus 40.9002 -24.5848 -55.8791
rradius 60.27
rwrist -46.8282
rhand -20.8565 21.2851
rfingers 7.12502
rthumb 5.51293 -8.62317
lclavicle -1.74931e-014 -3.97569e-015
lhumerus 29.9432 11.5873 47.018
lradius 75.0264
lwrist 42.7477
lhand -12.4896 33.3304
lfingers 7.12502
lthumb 13.5852 62.8671
rfemur -15.7182 -0.00724903 15.8876
rtibia 33.623
rfoot -16.3166 -12.4839
rtoes -10.0388
lfemur -12.7519 0.427823 -21.8032
ltibia 31.057
lfoot -17.9455 9.03185
ltoes -12.7655
819
root -0.0856431 17.7479 -2.70258 -0.669862 0.721732 2.09186
lowerback 7.69817 2.25339 -0.175659
upperback 4.39315 2.98618 0.612702
thorax 0.182699 1.48461 0.507805
lowerneck 4.631 -5.5225 -5.95091
upperneck 1.19324 -7.63488 3.94536
head -0.012609 -3.86441 2.33897
rclavicle 3.37934e-014 -1.19271e-014
rhumerus 39.363 -24.3964 -55.5156
rradius 60.846
rwrist -47.0235
rhand -20.8913 21.1782
rfingers 7.12502
rthumb 5.47929 -8.73092
lclavicle 3.37934e-014 -1.19271e-014
lhumerus 28.6113 11.1173 46.7824
lradius 75.4113
lwrist 42.6739
lhand -12.3593 33.3152
lfingers 7.12502
lthumb 13.7108 62.8435
rfemur -15.749 -0.0514449 15.8339
rtibia 33.7358
rfoot -16.3933 -12.392
rtoes -9.98579
lfemur -12.723 0.45872 -21.8535
ltibia 31.0983
lfoot -18.0498 9.04709
ltoes -12.9026
820
root -0.0822092 17.7456 -2.70036 -0.662093 0.647582 2.15592
lowerback 7.73711 2.2622 -0.273897
upperback 4.40979 2.99117 0.585026
thorax 0.17493 1.48566 0.53262
lowerneck 4.56616 -5.49888 -5.99198
upperneck 1.3347 -7.60378 3.94212
head 0.0428744 -3.84945 2.33966
rclavicle -5.76476e-015 -1.86858e-014
rhumerus 37.7736 -24.2075 -55.163
rradius 61.4268
rwrist -47.094
rhand -20.7789 21.1929
rfingers 7.12502
rthumb 5.58784 -8.7134
lclavicle -5.76476e-015 -1.86858e-014
lhumerus 27.3026 10.5562 46.4809
lradius 75.8434
lwrist 42.6866
lhand -12.4385 33.1378
lfingers 7.12502
lthumb 13.6344 62.6712
rfemur -15.8154 -0.127612 15.7453
rtibia 33.8377
rfoot -16.4298 -12.2545
rtoes -9.93447
lfemur -12.7229 0.513748 -21.9357
ltibia 31.1367
lfoot -18.1281 9.04116
ltoes -12.7636
821
root -0.0799056 17.7427 -2.69714 -0.634758 0.568612 2.18964
lowerback 7.75775 2.28452 -0.329388
upperback 4.43267 3.01682 0.559761
thorax 0.185468 1.49772 0.535453
lowerneck 4.43371 -5.47318 -6.05335
upperneck 1.48888 -7.56745 3.96785
head 0.115588 -3.83174 2.35082
rclavicle 3.96575e-014 -7.55382e-015
rhumerus 36.1003 -24.0128 -54.739
rradius 62.0954
rwrist -47.0939
rhand -20.6709 21.2314
rfingers 7.12502
rthumb 5.69205 -8.67212
lclavicle 3.96575e-014 -7.55382e-015
lhumerus 26.0505 9.91483 46.226
lradius 76.2821
lwrist 42.5705
lhand -12.7769 32.9173
lfingers 7.12502
lthumb 13.3082 62.4724
rfemur -15.9119 -0.24194 15.6935
rtibia 33.9407
rfoot -16.4808 -12.0854
rtoes -9.87854
lfemur -12.7532 0.550226 -21.982
ltibia 31.1743
lfoot -18.1561 9.07943
ltoes -12.7339
822
root -0.0770119 17.7386 -2.6944 -0.654973 0.513968 2.16005
lowerback 7.87999 2.29236 -0.312741
upperback 4.43122 3.02777 0.552202
thorax 0.117838 1.5036 0.512274
lowerneck 4.28497 -5.45848 -6.12231
upperneck 1.7653 -7.54657 3.9675
head 0.229764 -3.82238 2.35191
rclavicle 2.78299e-015 2.78299e-015
rhumerus 34.2666 -23.6476 -54.1169
rradius 62.8357
rwrist -47.2321
rhand -20.8042 21.1701
rfingers 7.12502
rthumb 5.5634 -8.73684
lclavicle 2.78299e-015 2.78299e-015
lhumerus 24.7278 9.21458 45.984
lradius 76.762
lwrist 42.3847
lhand -12.8342 32.8214
lfingers 7.12502
lthumb 13.253 62.38
rfemur -15.955 -0.340834 15.7123
rtibia 34.0543
rfoot -16.5321 -11.9764
rtoes -10.0852
lfemur -12.7531 0.547741 -21.9562
ltibia 31.2418
lfoot -18.277 9.06845
ltoes -12.5312
823
root -0.0740994 17.7341 -2.69232 -0.67377 0.461792 2.19581
lowerback 7.96706 2.28256 -0.383066
upperback 4.44964 3.00949 0.533612
thorax 0.0866275 1.49344 0.530602
lowerneck 4.25061 -5.41818 -6.20745
upperneck 1.91513 -7.49665 3.97465
head 0.283869 -3.79875 2.36534
rclavicle 3.25013e-014 1.31198e-014
rhumerus 32.5483 -23.1964 -53.6174
rradius 63.5787
rwrist -47.3193
rhand -20.8321 20.9098
rfingers 7.12502
rthumb 5.53648 -8.99787
lclavicle 3.25013e-014 1.31198e-014
lhumerus 23.3341 8.54531 45.7257
lradius 77.2846
lwrist 42.2357
lhand -12.6396 32.6844
lfingers 7.12502
lthumb 13.4406 62.2308
rfemur -15.9947 -0.342663 15.6648
rtibia 34.171
rfoot -16.5877 -11.9469
rtoes -10.0611
lfemur -12.7791 0.598763 -22.0043
ltibia 31.3598
lfoot -18.379 9.03247
ltoes -12.2967
824
root -0.0723881 17.7284 -2.69055 -0.703513 0.403306 2.19787
lowerback 8.02258 2.28337 -0.438923
upperback 4.4962 3.0063 0.519971
thorax 0.102202 1.49089 0.546896
lowerneck 4.21217 -5.38694 -6.19193
upperneck 2.00644 -7.4531 3.94303
head 0.31493 -3.77708 2.34922
rclavicle 1.98785e-015 -3.97569e-016
rhumerus 30.804 -22.758 -53.1684
rradius 64.381
rwrist -47.3282
rhand -20.7053 20.6386
rfingers 7.12502
rthumb 5.65885 -9.26589
lclavicle 1.98785e-015 -3.97569e-016
lhumerus 22.0679 7.87664 45.5468
lradius 77.7917
lwrist 42.0972
lhand -12.5391 32.5981
lfingers 7.12502
lthumb 13.5374 62.138
rfemur -16.0264 -0.301796 15.6576
rtibia 34.2811
rfoot -16.6548 -11.8888
rtoes -9.80113
lfemur -12.8238 0.65816 -22.0091
ltibia 31.5338
lfoot -18.4677 9.02341
ltoes -12.331
825
root -0.072752 17.7217 -2.68863 -0.686027 0.358897 2.16592
lowerback 8.04662 2.26251 -0.49421
upperback 4.51391 2.97462 0.517077
thorax 0.105099 1.47404 0.576725
lowerneck 4.20082 -5.33679 -6.11414
upperneck 2.08513 -7.38234 3.83267
head 0.330208 -3.74121 2.29754
rclavicle -1.31198e-014 1.98785e-014
rhumerus 29.0397 -22.2042 -52.6929
rradius 65.2109
rwrist -47.3843
rhand -20.6124 20.4113
rfingers 7.12502
rthumb 5.74858 -9.49069
lclavicle -1.31198e-014 1.98785e-014
lhumerus 20.7843 7.18119 45.3801
lradius 78.2763
lwrist 41.9503
lhand -12.6268 32.6062
lfingers 7.12502
lthumb 13.4529 62.1517
rfemur -16.1194 -0.255193 15.7019
rtibia 34.4045
rfoot -16.6658 -11.9323
rtoes -10.1294
lfemur -12.9441 0.723702 -21.9761
ltibia 31.7427
lfoot -18.5153 9.02474
ltoes -12.7042
826
root -0.0727992 17.7171 -2.68587 -0.689281 0.313882 2.06687
lowerback 8.10566 2.2404 -0.500458
upperback 4.52893 2.9447 0.55849
thorax 0.0861175 1.45845 0.623023
lowerneck 4.20093 -5.27776 -6.12339
upperneck 2.1617 -7.30411 3.74884
head 0.347081 -3.70244 2.27054
rclavicle 1.90833e-014 -1.90833e-014
rhumerus 27.2566 -21.5363 -52.0864
rradius 66.0113
rwrist -47.4547
rhand -20.3867 20.2295
rfingers 7.12502
rthumb 5.9665 -9.66646
lclavicle 1.90833e-014 -1.90833e-014
lhumerus 19.4355 6.44004 45.2303
lradius 78.7997
lwrist 41.7453
lhand -12.6037 32.6556
lfingers 7.12502
lthumb 13.4752 62.1997
rfemur -16.1832 -0.142913 15.8283
rtibia 34.5185
rfoot -16.649 -12.0996
rtoes -10.3631
lfemur -13.0533 0.783137 -21.8691
ltibia 31.9767
lfoot -18.5861 9.00356
ltoes -12.9017
827
root -0.0750071 17.7116 -2.68404 -0.665708 0.26888 1.99997
lowerback 8.18069 2.2286 -0.546415
upperback 4.5111 2.9256 0.585457
thorax 0.0230665 1.44795 0.674307
lowerneck 4.19792 -5.22544 -6.16295
upperneck 2.27562 -7.23642 3.68375
head 0.378818 -3.66954 2.25426
rclavicle -3.28989e-014 9.14409e-015
rhumerus 25.4695 -20.8698 -51.5465
rradius 66.8021
rwrist -47.4554
rhand -20.0356 20.2461
rfingers 7.12502
rthumb 6.30547 -9.64003
lclavicle -3.28989e-014 9.14409e-015
lhumerus 18.0427 5.64952 45.095
lradius 79.3498
lwrist 41.4784
lhand -12.3555 32.7921
lfingers 7.12502
lthumb 13.7144 62.3201
rfemur -16.2731 -0.0194549 15.9228
rtibia 34.6344
rfoot -16.6623 -12.2104
rtoes -10.4939
lfemur -13.192 0.859594 -21.7843
ltibia 32.192
lfoot -18.6871 8.92437
ltoes -12.6362
